<?xml version="1.0" encoding="UTF-8"?>
<svg width="24px" height="21px" viewBox="0 0 24 21" version="1.1" xmlns="http://www.w3.org/2000/svg" xmlns:xlink="http://www.w3.org/1999/xlink">
    <!-- Generator: sketchtool 61 (101010) - https://sketch.com -->
    <title>E06D4074-9101-4E75-BDD6-0F4E7646411D</title>
    <desc>Created with sketchtool.</desc>
    <g id="TESTE-DEV" stroke="none" stroke-width="1" fill="none" fill-rule="evenodd">
        <g id="Inicio" transform="translate(-32.000000, -439.000000)" fill="#FFFFFF" fill-rule="nonzero">
            <g id="Menu">
                <g id="icones-menu" transform="translate(28.000000, 235.000000)">
                    <g id="icone-inicio" transform="translate(4.806452, 204.000000)">
                        <path d="M0.799757049,12.292644 L2.68561859,12.292644 L2.68561859,19.8242191 C2.68561859,20.2680431 3.0493174,20.6311719 3.49383817,20.6311719 L9.01668784,20.6311719 C9.46120861,20.6311719 9.82490742,20.2680431 9.82490742,19.8242191 L9.82490742,14.3100259 L13.1924732,14.3100259 L13.1924732,19.8242191 C13.1924732,20.2680431 13.556172,20.6311719 14.0006928,20.6311719 L19.25412,20.6311719 C19.6986408,20.6311719 20.0623396,20.2680431 20.0623396,19.8242191 L20.0623396,12.292644 L22.352311,12.292644 C22.6755988,12.292644 22.9719301,12.0909058 23.0931631,11.7950389 C23.214396,11.4991721 23.1470285,11.1494767 22.9180647,10.9208243 L12.3842536,0.25561416 C12.0744202,-0.0537335617 11.5625795,-0.0671669521 11.2527462,0.24218077 L0.247505362,10.9073909 C0.00503948681,11.1360433 -0.0623279926,11.4856912 0.0589049449,11.7950389 C0.180137882,12.1043392 0.476469215,12.292644 0.799757049,12.292644 Z M11.7915434,1.96364839 L20.4125364,10.6787384 L19.2540725,10.6787384 C18.8095517,10.6787384 18.4458529,11.0418672 18.4458529,11.4856912 L18.4458529,19.0172663 L14.8088648,19.0172663 L14.8088648,13.5030732 C14.8088648,13.0592491 14.445166,12.6961204 14.0006452,12.6961204 L9.01668784,12.6961204 C8.57216707,12.6961204 8.20846826,13.0592491 8.20846826,13.5030732 L8.20846826,19.0172663 L4.30205776,19.0172663 L4.30205776,11.4856912 C4.30205776,11.0418672 3.93835894,10.6787384 3.49383817,10.6787384 L2.79339705,10.6787384 L11.7915434,1.96364839 Z" id="Shape"></path>
                    </g>
                </g>
            </g>
        </g>
    </g>
</svg>