<?xml version="1.0" encoding="UTF-8"?>
<svg width="21px" height="24px" viewBox="0 0 21 24" version="1.1" xmlns="http://www.w3.org/2000/svg" xmlns:xlink="http://www.w3.org/1999/xlink">
    <!-- Generator: sketchtool 61 (101010) - https://sketch.com -->
    <title>21D5FB79-5734-4D38-94A8-F76C2D3782C8</title>
    <desc>Created with sketchtool.</desc>
    <g id="TESTE-DEV" stroke="none" stroke-width="1" fill="none" fill-rule="evenodd">
        <g id="Inicio" transform="translate(-34.000000, -735.000000)" fill="#8E8E8E" fill-rule="nonzero" stroke="#979797" stroke-width="0.5">
            <g id="Menu">
                <g id="icones-menu" transform="translate(28.000000, 235.000000)">
                    <g id="icone-usuarios" transform="translate(7.025706, 501.000000)">
                        <path d="M9.59265364,12.1645629 C9.61619967,12.1645629 9.6397457,12.1645629 9.66800094,12.1645629 C9.67741935,12.1645629 9.68683777,12.1645629 9.69625618,12.1645629 C9.7103838,12.1645629 9.72922063,12.1645629 9.74334825,12.1645629 C11.1231457,12.1411875 12.2392277,11.659654 13.0633388,10.7386629 C14.8763833,8.70967742 14.5749941,5.23141655 14.5420297,4.89948574 C14.4242995,2.40766713 13.2375795,1.21552127 12.2580645,0.659186536 C11.5281375,0.243104254 10.6757711,0.0187003273 9.72451142,0 L9.69154697,0 C9.68683777,0 9.67741935,0 9.67271015,0 L9.64445491,0 C9.12173299,0 8.09512597,0.0841514727 7.11090181,0.640486209 C6.12196845,1.19682094 4.91641158,2.38896681 4.79868142,4.89948574 C4.76571698,5.23141655 4.46432776,8.70967742 6.27737226,10.7386629 C7.09677419,11.659654 8.21285613,12.1411875 9.59265364,12.1645629 Z M6.05603956,5.01636279 C6.05603956,5.00233754 6.06074876,4.9883123 6.06074876,4.97896213 C6.21615258,1.62692847 8.61313869,1.26694717 9.6397457,1.26694717 L9.65858253,1.26694717 C9.66800094,1.26694717 9.68212856,1.26694717 9.69625618,1.26694717 C10.9677419,1.29499766 13.1292677,1.80925666 13.2752531,4.97896213 C13.2752531,4.99298738 13.2752531,5.00701262 13.2799623,5.01636279 C13.2846715,5.04908836 13.614316,8.22814399 12.1167883,9.90182328 C11.5234283,10.5656849 10.7322816,10.8929406 9.69154697,10.9022908 C9.68212856,10.9022908 9.67741935,10.9022908 9.66800094,10.9022908 L9.66800094,10.9022908 C9.65858253,10.9022908 9.65387332,10.9022908 9.64445491,10.9022908 C8.60842948,10.8929406 7.81257358,10.5656849 7.22392277,9.90182328 C5.73110431,8.23749416 6.05133035,5.04441328 6.05603956,5.01636279 Z" id="Shape"></path>
                        <path d="M19.3454203,17.9336138 C19.3454203,17.9289388 19.3454203,17.9242637 19.3454203,17.9195886 C19.3454203,17.8821879 19.3407111,17.8447873 19.3407111,17.8027115 C19.3124559,16.8770453 19.2512362,14.7124825 17.2074405,14.0205704 C17.1933129,14.0158953 17.1744761,14.0112202 17.1603485,14.0065451 C15.0364964,13.4689107 13.2705439,12.2533894 13.2517071,12.2393642 C12.9644455,12.0383357 12.5688721,12.1084619 12.3663763,12.3936419 C12.1638804,12.6788219 12.2345185,13.0715288 12.5217801,13.2725573 C12.6018366,13.3286583 14.4761008,14.6236559 16.8212856,15.2220664 C17.9185307,15.6100982 18.0409701,16.7741935 18.0739345,17.8401122 C18.0739345,17.8821879 18.0739345,17.9195886 18.0786437,17.9569892 C18.083353,18.3777466 18.0550977,19.027583 17.9797504,19.4015895 C17.216859,19.8316971 14.2265128,21.3183731 9.67741935,21.3183731 C5.1471627,21.3183731 2.13797975,19.827022 1.37037909,19.3969144 C1.29503179,19.0229079 1.26206734,18.3730715 1.27148575,17.9523142 C1.27148575,17.9149135 1.27619496,17.8775129 1.27619496,17.8354371 C1.30915941,16.7695185 1.43159878,15.6054231 2.52884389,15.2173913 C4.87402873,14.6189808 6.74829291,13.3193081 6.82834942,13.2678822 C7.11561102,13.0668537 7.18624912,12.6741468 6.98375324,12.3889668 C6.78125736,12.1037868 6.38568401,12.0336606 6.09842242,12.2346891 C6.07958559,12.2487144 4.32305157,13.4642356 2.18978102,14.00187 C2.1709442,14.0065451 2.15681658,14.0112202 2.14268896,14.0158953 C0.0988933365,14.7124825 0.037673652,16.8770453 0.009418413,17.7980365 C0.009418413,17.8401122 0.009418413,17.8775129 0.0047092065,17.9149135 C0.0047092065,17.9195886 0.0047092065,17.9242637 0.0047092065,17.9289388 C1.994932e-17,18.172043 -0.0047092065,19.4202899 0.244878738,20.0467508 C0.291970803,20.1683029 0.37673652,20.2711547 0.489757476,20.341281 C0.631033671,20.4347826 4.01695314,22.5759701 9.68212856,22.5759701 C15.347304,22.5759701 18.7332235,20.4301075 18.8744996,20.341281 C18.9828114,20.2711547 19.0722863,20.1683029 19.1193784,20.0467508 C19.3548387,19.4249649 19.3501295,18.1767181 19.3454203,17.9336138 Z" id="Path"></path>
                    </g>
                </g>
            </g>
        </g>
    </g>
</svg>