<?xml version="1.0" encoding="UTF-8"?>
<svg width="25px" height="19px" viewBox="0 0 25 19" version="1.1" xmlns="http://www.w3.org/2000/svg" xmlns:xlink="http://www.w3.org/1999/xlink">
    <!-- Generator: sketchtool 61 (101010) - https://sketch.com -->
    <title>77A3C390-DECA-479A-BB0E-D8FE3ABA4A4E</title>
    <desc>Created with sketchtool.</desc>
    <g id="TESTE-DEV" stroke="none" stroke-width="1" fill="none" fill-rule="evenodd">
        <g id="Inicio" transform="translate(-32.000000, -539.000000)" fill="#8E8E8E" fill-rule="nonzero">
            <g id="Menu">
                <g id="icones-menu" transform="translate(28.000000, 235.000000)">
                    <g id="icone-marketing" transform="translate(4.806452, 304.000000)">
                        <path d="M23.484753,8.56079404 L21.3583669,8.56079404 C20.9669229,8.56079404 20.6495716,8.88020678 20.6495716,9.27419355 C20.6495716,9.66818031 20.9669229,9.98759305 21.3583669,9.98759305 L23.484753,9.98759305 C23.8761971,9.98759305 24.1935484,9.66818031 24.1935484,9.27419355 C24.1935484,8.88020678 23.8761971,8.56079404 23.484753,8.56079404 Z" id="Path"></path>
                        <path d="M22.5683751,13.0501696 L21.1507844,11.6233706 C20.8740234,11.3448118 20.4252142,11.3448118 20.148406,11.6233706 C19.8715505,11.9019293 19.8715505,12.3536538 20.148406,12.6322601 L21.5659967,14.0590591 C21.8427577,14.3376654 22.2916142,14.3376654 22.5683751,14.0590591 C22.8451833,13.7804529 22.8451833,13.3287758 22.5683751,13.0501696 Z" id="Path"></path>
                        <path d="M22.5683279,4.48937552 C22.2915669,4.21081679 21.8427577,4.21081679 21.5659495,4.48937552 L20.1483587,5.91617452 C19.8715505,6.19478081 19.8715505,6.64645782 20.1483587,6.9250641 C20.425167,7.20367039 20.8739762,7.20362283 21.1507371,6.9250641 L22.5683279,5.4982651 C22.8451361,5.21965881 22.8451361,4.7679818 22.5683279,4.48937552 Z" id="Path"></path>
                        <path d="M16.3967994,0 C15.3321415,0 14.4478484,0.791635649 14.2941816,1.82078577 L13.6476184,2.4715488 C12.5222877,3.60418941 10.8650296,4.28039702 9.21433972,4.28039702 L4.96156754,4.28039702 C4.03753465,4.28039702 3.24968498,4.87684657 2.95709425,5.70719603 L2.83518145,5.70719603 C1.2718624,5.70719603 0,6.9873201 0,8.56079404 C0,10.134268 1.2718624,11.4143921 2.83518145,11.4143921 L2.95709425,11.4143921 C3.17100869,12.0214475 3.64963458,12.5031824 4.25277218,12.7184864 L4.25277218,16.4081886 C4.25277218,17.588294 5.20671623,18.5483871 6.37920552,18.5483871 C7.55164756,18.5483871 8.50554435,17.588294 8.50554435,16.4081886 L8.50554435,12.8411911 L9.21433972,12.8411911 C10.8649824,12.8411911 12.5222404,13.5173987 13.6476184,14.6500393 L14.2941816,15.3008023 C14.4478484,16.3299049 15.3321888,17.1215881 16.3968466,17.1215881 C17.5692887,17.1215881 18.5231855,16.161495 18.5231855,14.9813896 L18.5231855,2.14019851 C18.5231855,0.960093052 17.5692887,0 16.3967994,0 Z M2.83518145,9.98759305 C2.05352193,9.98759305 1.41759073,9.34753102 1.41759073,8.56079404 C1.41759073,7.77405707 2.05352193,7.13399504 2.83518145,7.13399504 L2.83518145,9.98759305 Z M7.08795363,16.4081886 C7.08795363,16.8015571 6.76998803,17.1215881 6.37915827,17.1215881 C5.9883285,17.1215881 5.6703629,16.8015571 5.6703629,16.4081886 L5.6703629,12.8411911 L7.08795363,12.8411911 L7.08795363,16.4081886 Z M8.50554435,11.4143921 L4.96156754,11.4143921 C4.57073778,11.4143921 4.25277218,11.094361 4.25277218,10.7009926 L4.25277218,6.42059553 C4.25277218,6.02722705 4.57073778,5.70719603 4.96156754,5.70719603 L8.50554435,5.70719603 L8.50554435,11.4143921 Z M14.2704133,13.2856865 C13.0729744,12.2426013 11.5334236,11.5945017 9.91840978,11.4467328 L9.91845703,5.67480769 C11.5334236,5.52708644 13.0729744,4.87898677 14.2704133,3.83585401 L14.2704133,13.2856865 Z M17.1055948,14.9813896 C17.1055948,15.3747581 16.7876292,15.6947891 16.3968466,15.6947891 L16.3967994,15.6947891 C16.0059696,15.6947891 15.688004,15.3747581 15.688004,14.9813896 L15.688004,2.14019851 C15.688004,1.74683002 16.0059696,1.42679901 16.3968466,1.42679901 C16.7876292,1.42679901 17.1055948,1.74683002 17.1055948,2.14019851 L17.1055948,14.9813896 Z" id="Shape"></path>
                    </g>
                </g>
            </g>
        </g>
    </g>
</svg>