<?xml version="1.0" encoding="UTF-8"?>
<svg width="176px" height="177px" viewBox="0 0 176 177" version="1.1" xmlns="http://www.w3.org/2000/svg" xmlns:xlink="http://www.w3.org/1999/xlink">
    <!-- Generator: sketchtool 61 (101010) - https://sketch.com -->
    <title>7073135A-644D-42E1-859F-71EDC65D0D40</title>
    <desc>Created with sketchtool.</desc>
    <g id="TESTE-DEV" stroke="none" stroke-width="1" fill="none" fill-rule="evenodd" opacity="0.3">
        <g id="Menu-aberto" transform="translate(-669.000000, -113.000000)" fill="#FFFFFF" fill-rule="nonzero">
            <g id="Treinamentos" transform="translate(130.000000, 0.000000)">
                <g id="icone-quadro" transform="translate(539.000000, 113.000000)">
                    <g>
                        <path d="M6.22068966,44.6692506 L16.0827586,44.6692506 L16.0827586,117.237726 C16.0827586,120.744186 18.8137931,123.488372 22.3034483,123.488372 L45.062069,123.488372 L16.9931034,167.395349 C15.1724138,170.29199 15.9310345,174.103359 18.8137931,175.932817 C19.8758621,176.542636 20.937931,176.847545 22.1517241,176.847545 C24.1241379,176.847545 26.2482759,175.780362 27.3103448,173.950904 L59.6275862,123.335917 L116.068966,123.335917 L148.386207,174.103359 C149.6,175.932817 151.572414,177 153.544828,177 C154.758621,177 155.82069,176.69509 156.882759,176.085271 C159.765517,174.255814 160.675862,170.444444 158.703448,167.547804 L130.786207,123.488372 L153.696552,123.488372 C157.186207,123.488372 159.917241,120.744186 159.917241,117.237726 L159.917241,44.6692506 L169.77931,44.6692506 C173.268966,44.6692506 176,41.9250646 176,38.4186047 L176,6.25064599 C176,2.74418605 173.268966,0 169.77931,0 L6.22068966,0 C2.73103448,0 0,2.74418605 0,6.25064599 L0,38.4186047 C0,41.9250646 2.73103448,44.6692506 6.22068966,44.6692506 Z M147.475862,111.139535 L121.227586,111.139535 C119.862069,110.682171 118.496552,110.682171 117.131034,111.139535 L56.7448276,111.139535 C56.5931034,111.139535 56.4413793,111.139535 56.137931,111.139535 L28.5241379,111.139535 L28.5241379,44.6692506 L147.627586,44.6692506 L147.627586,111.139535 L147.475862,111.139535 Z M12.137931,12.501292 L163.406897,12.501292 L163.406897,32.1679587 L153.544828,32.1679587 L22.1517241,32.1679587 L12.2896552,32.1679587 L12.2896552,12.501292 L12.137931,12.501292 Z" id="Shape"></path>
                        <path d="M46.4236104,99 C47.9530415,99 49.6354157,98.3958267 50.8589605,97.1874801 L60.8002624,87.3696642 L81.2946385,92.6561805 C83.5887851,93.2603538 86.0358748,92.5051371 87.7182489,90.6926173 L108.518511,66.2235991 C110.812658,63.6558626 110.353829,59.7287362 107.753796,57.4630864 C105.153763,55.1974365 101.177242,55.6505665 98.8830956,58.218303 L80.529923,79.6664548 L60.341433,74.5309818 C58.2002296,73.9268085 55.906083,74.5309818 54.3766519,76.1924583 L41.8353173,88.5780108 C39.3882276,90.9947039 39.3882276,94.9218303 41.8353173,97.3385235 C43.2118052,98.3958267 44.7412363,99 46.4236104,99 Z" id="Path"></path>
                    </g>
                </g>
            </g>
        </g>
    </g>
</svg>