<?xml version="1.0" encoding="UTF-8"?>
<svg width="25px" height="25px" viewBox="0 0 25 25" version="1.1" xmlns="http://www.w3.org/2000/svg" xmlns:xlink="http://www.w3.org/1999/xlink">
    <!-- Generator: sketchtool 61 (101010) - https://sketch.com -->
    <title>7AE1CCCE-965B-4C68-93B5-110E34004704</title>
    <desc>Created with sketchtool.</desc>
    <g id="TESTE-DEV" stroke="none" stroke-width="1" fill="none" fill-rule="evenodd">
        <g id="Inicio" transform="translate(-32.000000, -336.000000)" fill="#8E8E8E" fill-rule="nonzero">
            <g id="Menu">
                <g id="icones-menu" transform="translate(28.000000, 235.000000)">
                    <g id="icone-administrativo" transform="translate(4.806452, 101.000000)">
                        <path d="M3.59122984,11.3407258 C4.16306524,11.3407258 4.68063357,11.1112902 5.06308773,10.7428643 L7.16123272,11.7918445 C7.15071155,11.8773061 7.13520665,11.9612909 7.13520665,12.0495212 C7.13520665,13.2219868 8.08912708,14.1759073 9.26159274,14.1759073 C10.4340584,14.1759073 11.3879788,13.2219868 11.3879788,12.0495212 C11.3879788,11.7222571 11.307501,11.4158507 11.1747865,11.1386084 L14.0210428,8.29235199 C14.2982852,8.42506655 14.6046915,8.50554435 14.9319556,8.50554435 C16.1044213,8.50554435 17.0583417,7.55162393 17.0583417,6.37915827 C17.0583417,6.15839804 17.0149649,5.94963565 16.952207,5.74936405 L19.4252383,3.89505204 C19.7626545,4.12042681 20.1670739,4.25277218 20.6023185,4.25277218 C21.7747842,4.25277218 22.7287046,3.29885175 22.7287046,2.12638609 C22.7287046,0.953920426 21.7747842,0 20.6023185,0 C19.4298529,0 18.4759325,0.953920426 18.4759325,2.12638609 C18.4759325,2.34714631 18.5193093,2.55590871 18.5820672,2.7561803 L16.1090358,4.61049231 C15.7716197,4.38511755 15.3672003,4.25277218 14.9319556,4.25277218 C13.75949,4.25277218 12.8055696,5.2066926 12.8055696,6.37915827 C12.8055696,6.70642236 12.8860474,7.01282869 13.0187619,7.29007107 L10.1725055,10.1363274 C9.89526317,10.0036129 9.58885684,9.92313508 9.26159274,9.92313508 C8.68975734,9.92313508 8.17218901,10.1525707 7.78973485,10.5209966 L5.69158986,9.47201637 C5.70211103,9.38655483 5.71761593,9.30257 5.71761593,9.21433972 C5.71761593,8.04187405 4.7636955,7.08795363 3.59122984,7.08795363 C2.41876418,7.08795363 1.46484375,8.04187405 1.46484375,9.21433972 C1.46484375,10.3868054 2.41876418,11.3407258 3.59122984,11.3407258 Z" id="Path"></path>
                        <path d="M23.484753,22.7759577 L22.7287046,22.7759577 L22.7287046,7.79674899 C22.7287046,7.40506574 22.4115925,7.08795363 22.0199093,7.08795363 L19.1847278,7.08795363 C18.7930446,7.08795363 18.4759325,7.40506574 18.4759325,7.79674899 L18.4759325,22.7759577 L17.0583417,22.7759577 L17.0583417,12.0495212 C17.0583417,11.6578379 16.7412296,11.3407258 16.3495464,11.3407258 L13.5143649,11.3407258 C13.1226817,11.3407258 12.8055696,11.6578379 12.8055696,12.0495212 L12.8055696,22.7759577 L11.3879788,22.7759577 L11.3879788,17.7198841 C11.3879788,17.3282008 11.0708667,17.0110887 10.6791835,17.0110887 L7.84400202,17.0110887 C7.45231877,17.0110887 7.13520665,17.3282008 7.13520665,17.7198841 L7.13520665,22.7759577 L5.71761593,22.7759577 L5.71761593,14.8847026 C5.71761593,14.4930194 5.40050381,14.1759073 5.00882056,14.1759073 L2.17363911,14.1759073 C1.78195587,14.1759073 1.46484375,14.4930194 1.46484375,14.8847026 L1.46484375,22.7759577 L0.708795363,22.7759577 C0.317112116,22.7759577 0,23.0930698 0,23.484753 C0,23.8764363 0.317112116,24.1935484 0.708795363,24.1935484 L23.484753,24.1935484 C23.8764363,24.1935484 24.1935484,23.8764363 24.1935484,23.484753 C24.1935484,23.0930698 23.8764363,22.7759577 23.484753,22.7759577 Z" id="Path"></path>
                    </g>
                </g>
            </g>
        </g>
    </g>
</svg>