<?xml version="1.0" encoding="UTF-8"?>
<svg width="23px" height="22px" viewBox="0 0 23 22" version="1.1" xmlns="http://www.w3.org/2000/svg" xmlns:xlink="http://www.w3.org/1999/xlink">
    <!-- Generator: sketchtool 61 (101010) - https://sketch.com -->
    <title>725C99D9-7407-4648-9112-B5062225C39D</title>
    <desc>Created with sketchtool.</desc>
    <g id="TESTE-DEV" stroke="none" stroke-width="1" fill="none" fill-rule="evenodd">
        <g id="Inicio" transform="translate(-32.000000, -235.000000)" fill="#8E8E8E" fill-rule="nonzero">
            <g id="Menu">
                <g id="icones-menu" transform="translate(28.000000, 235.000000)">
                    <g id="icone-treinamentos" transform="translate(4.280872, 0.000000)">
                        <path d="M0.81368991,5.51088323 L2.03009455,5.51088323 L2.03009455,14.418708 C2.03009455,14.8491281 2.36694507,15.1859786 2.79736518,15.1859786 L5.60445282,15.1859786 L2.14237806,20.5755869 C1.91781105,20.9311513 2.01138064,21.3989993 2.36694507,21.6235663 C2.49794249,21.698422 2.62893992,21.7358498 2.77865126,21.7358498 C3.02193219,21.7358498 3.28392703,21.6048524 3.41492446,21.3802854 L7.40098891,15.1672647 L14.3625663,15.1672647 L18.3486307,21.3989993 C18.4983421,21.6235663 18.741623,21.7545637 18.9849039,21.7545637 C19.1346152,21.7545637 19.2656127,21.7171359 19.3966101,21.6422802 C19.7521745,21.4177132 19.864458,20.9498653 19.6211771,20.5943008 L16.1778163,15.1859786 L19.0036178,15.1859786 C19.4340379,15.1859786 19.7708884,14.8491281 19.7708884,14.418708 L19.7708884,5.51088323 L20.9872931,5.51088323 C21.4177132,5.51088323 21.7545637,5.17403271 21.7545637,4.74361261 L21.7545637,0.794975992 C21.7545637,0.364555887 21.4177132,0.0277053702 20.9872931,0.0277053702 L0.81368991,0.0277053702 C0.383269805,0.0277053702 0.0464192878,0.364555887 0.0464192878,0.794975992 L0.0464192878,4.74361261 C0.0464192878,5.17403271 0.383269805,5.51088323 0.81368991,5.51088323 Z M18.2363472,13.6701513 L14.9988395,13.6701513 C14.8304142,13.6140096 14.6619889,13.6140096 14.4935637,13.6701513 L7.04542447,13.6701513 C7.02671056,13.6701513 7.00799664,13.6701513 6.9705688,13.6701513 L3.5646358,13.6701513 L3.5646358,5.51088323 L18.2550611,5.51088323 L18.2550611,13.6701513 L18.2363472,13.6701513 Z M1.5435327,1.56224661 L20.2013086,1.56224661 L20.2013086,3.97634199 L18.9849039,3.97634199 L2.77865126,3.97634199 L1.56224661,3.97634199 L1.56224661,1.56224661 L1.5435327,1.56224661 Z" id="Shape"></path>
                        <path d="M5.82901983,12.1730379 C6.01615901,12.1730379 6.2220121,12.0981822 6.37172344,11.9484709 L7.58812808,10.7320662 L10.095793,11.3870534 C10.3765018,11.461909 10.6759245,11.3683394 10.8817776,11.1437724 L13.4268704,8.11211778 C13.7075791,7.79398118 13.6514374,7.30741932 13.3333008,7.02671056 C13.0151642,6.74600179 12.5286023,6.80214354 12.2478936,7.12028014 L10.0022235,9.77765644 L7.53198633,9.14138325 C7.26999149,9.06652758 6.98928272,9.14138325 6.80214354,9.34723634 L5.2676023,10.8817776 C4.96817962,11.1812003 4.96817962,11.6677621 5.2676023,11.9671848 C5.43602756,12.0981822 5.62316674,12.1730379 5.82901983,12.1730379 Z" id="Path"></path>
                    </g>
                </g>
            </g>
        </g>
    </g>
</svg>