<?xml version="1.0" encoding="UTF-8"?>
<svg width="25px" height="21px" viewBox="0 0 25 21" version="1.1" xmlns="http://www.w3.org/2000/svg" xmlns:xlink="http://www.w3.org/1999/xlink">
    <!-- Generator: sketchtool 61 (101010) - https://sketch.com -->
    <title>0BF8A864-B370-46A1-86C9-C98A5D04654C</title>
    <desc>Created with sketchtool.</desc>
    <g id="TESTE-DEV" stroke="none" stroke-width="1" fill="none" fill-rule="evenodd">
        <g id="Inicio" transform="translate(-32.000000, -636.000000)" fill="#8E8E8E" fill-rule="nonzero">
            <g id="Menu">
                <g id="icones-menu" transform="translate(28.000000, 235.000000)">
                    <g id="icone-comercial" transform="translate(4.000000, 401.000000)">
                        <path d="M23.489183,2.79588092 C23.4877063,2.79588092 23.4862297,2.79569892 23.484753,2.79569892 L17.0583417,2.79569892 L17.0583417,2.09677419 C17.0583417,0.940636201 16.1044213,0 14.9319556,0 L9.26159274,0 C8.08912708,0 7.13520665,0.940636201 7.13520665,2.09677419 L7.13520665,2.79569892 L0.708795363,2.79569892 C0.314158802,2.79569892 0,3.11458333 0,3.49462366 L0,18.8709677 C0,20.0271057 0.953920426,20.9677419 2.12638609,20.9677419 L22.0671623,20.9677419 C23.239628,20.9677419 24.1935484,20.0271057 24.1935484,18.8709677 L24.1935484,3.50936659 C24.1935484,3.50845654 24.1935484,3.50754649 24.1935484,3.5066364 C24.1664148,3.04760305 23.880128,2.79842911 23.489183,2.79588092 Z M8.55279738,2.09677419 C8.55279738,1.71145554 8.87083239,1.39784946 9.26159274,1.39784946 L14.9319556,1.39784946 C15.322716,1.39784946 15.640751,1.71145554 15.640751,2.09677419 L15.640751,2.79569892 L8.55279738,2.79569892 L8.55279738,2.09677419 Z M22.5012995,4.19354839 L20.3001576,10.7048331 C20.2036212,10.9907734 19.9333929,11.1827957 19.6279095,11.1827957 L15.640751,11.1827957 L15.640751,10.483871 C15.640751,10.0978243 15.3234543,9.78494624 14.9319556,9.78494624 L9.26159274,9.78494624 C8.87009407,9.78494624 8.55279738,10.0978243 8.55279738,10.483871 L8.55279738,11.1827957 L4.56563889,11.1827957 C4.26015546,11.1827957 3.98992723,10.9907734 3.89339077,10.7048331 L1.69224893,4.19354839 L22.5012995,4.19354839 Z M14.2231603,11.1827957 L14.2231603,12.5806452 L9.9703881,12.5806452 L9.9703881,11.1827957 L14.2231603,11.1827957 Z M22.7759577,18.8709677 C22.7759577,19.2562864 22.4579226,19.5698925 22.0671623,19.5698925 L2.12638609,19.5698925 C1.73562574,19.5698925 1.41759073,19.2562864 1.41759073,18.8709677 L1.41759073,7.80156531 L2.54852542,11.1469394 C2.83831934,12.0045783 3.64900403,12.5806452 4.56563889,12.5806452 L8.55279738,12.5806452 L8.55279738,13.2795699 C8.55279738,13.6656166 8.87009407,13.9784946 9.26159274,13.9784946 L14.9319556,13.9784946 C15.3234543,13.9784946 15.640751,13.6656166 15.640751,13.2795699 L15.640751,12.5806452 L19.6279095,12.5806452 C20.5445444,12.5806452 21.3552291,12.0045783 21.645023,11.1469394 L22.7759577,7.80156531 L22.7759577,18.8709677 Z" id="Shape"></path>
                    </g>
                </g>
            </g>
        </g>
    </g>
</svg>