<?xml version="1.0" encoding="UTF-8"?>
<svg width="94px" height="35px" viewBox="0 0 94 35" version="1.1" xmlns="http://www.w3.org/2000/svg" xmlns:xlink="http://www.w3.org/1999/xlink">
    <!-- Generator: sketchtool 61 (101010) - https://sketch.com -->
    <title>AF18D64A-05E7-4866-A778-9CA2CE1005F4</title>
    <desc>Created with sketchtool.</desc>
    <g id="TESTE-DEV" stroke="none" stroke-width="1" fill="none" fill-rule="evenodd">
        <g id="Menu-aberto" transform="translate(-61.000000, -73.000000)" fill="#FE3166">
            <path d="M154.098334,91.9290113 C153.520691,90.5509737 152.695199,89.3136235 151.643496,88.2524967 C150.592082,87.190496 149.366971,86.3571488 148.001344,85.7737184 C146.586956,85.1701897 145.086296,84.863765 143.540913,84.863765 C141.995242,84.863765 140.493428,85.1701897 139.078751,85.7737184 C135.504982,87.3000166 133.725888,89.4598452 131.926307,94.2068076 C131.136304,96.2894474 130.391312,98.2581974 128.550183,99.9379993 C127.654865,100.668525 126.272504,101.637026 124.68615,102.188124 C123.199917,102.704561 121.432075,102.990596 119.706648,102.990596 C118.02854,102.990596 116.695806,102.450275 115.879258,101.866262 L110.926878,104.031625 C111.098555,104.229985 111.275426,104.42485 111.46153,104.612725 C112.513521,105.674143 113.739209,106.507781 115.104259,107.091212 C116.477964,107.677846 118.112215,108 119.706648,108 C121.968746,108 124.311345,107.619591 126.3028,106.926639 C128.60587,106.125333 130.52548,104.776423 131.729817,103.786077 C131.758958,103.762192 131.787235,103.737433 131.815222,103.712092 C134.585716,101.213507 135.681853,98.3214048 136.562744,95.9972953 C137.927505,92.3973868 138.851099,91.3120839 141.01221,90.3893142 C141.812601,90.0488099 142.661753,89.8749168 143.540913,89.8749168 C144.418342,89.8749168 145.269226,90.0488099 146.067885,90.3893142 C146.841153,90.7190413 147.536518,91.1935336 148.133781,91.7961884 C148.730467,92.3982607 149.19991,93.1008239 149.527395,93.8808672 C149.857766,94.6702314 150.035213,95.7668941 150.035213,96.8329727 L150.035213,107.539489 C150.037522,107.75853 150.211507,107.935336 150.42733,107.937958 C152.861971,107.730859 155,106.286992 155,103.274592 L155,96.8329727 C155,95.1616178 154.739166,93.4576398 154.098334,91.9290113 L154.098334,91.9290113 Z M83.1264388,99.8395473 C82.5335036,100.076939 81.9714414,100.306758 81.4315962,100.525216 C77.6552768,102.062583 75.3752893,102.990596 72.4585096,102.990596 C71.5807923,102.990596 70.7310627,102.81612 69.9312493,102.475033 C69.1582695,102.144141 68.4634822,101.672853 67.8670845,101.069033 C67.2683786,100.466669 66.8009552,99.7646887 66.4734703,98.9840629 C66.1350211,98.1775133 65.9636326,97.3185336 65.9636326,96.4330476 C65.9636326,95.5461052 66.1350211,94.6882906 66.4734703,93.8808672 C66.8009552,93.1008239 67.2683786,92.3982607 67.8670845,91.7961884 C68.4634822,91.1935336 69.1582695,90.7190413 69.9312493,90.3893142 C70.7310627,90.0488099 71.5807923,89.8749168 72.4585096,89.8749168 C73.337381,89.8749168 74.1879762,90.0488099 74.9869239,90.3893142 C75.7604808,90.7190413 76.4549796,91.1935336 77.0528199,91.7961884 C77.6492176,92.3982607 78.1189492,93.1008239 78.4449915,93.8808672 C78.6737981,94.4252663 78.8244123,94.9950067 78.8988538,95.5790196 L78.900585,95.5790196 C78.9245333,95.7750499 79.0875544,95.9270972 79.2860651,95.9294274 C81.7484054,95.7494174 83.9184618,94.4508988 83.9184618,91.2631491 L83.9184618,73.3993425 C83.9175962,73.1803013 83.7430338,73.0023302 83.5257684,73 C81.0599657,73.1974867 78.9545407,74.8679677 78.9545407,77.7440496 L78.9545407,86.8998003 C78.3186141,86.4570573 77.6388304,86.0815995 76.9203833,85.7737184 C75.5062833,85.1701897 74.0053348,84.863765 72.4585096,84.863765 C70.913127,84.863765 69.4124671,85.1701897 67.9980785,85.7737184 C66.6333176,86.3571488 65.4079181,87.190496 64.3556384,88.2524967 C63.3039357,89.3136235 62.4787314,90.5509737 61.9010884,91.9290113 C61.3035367,93.3568575 61,94.8720872 61,96.4330476 C61,97.9925516 61.3035367,99.5083638 61.9010884,100.935919 C62.4787314,102.313083 63.3039357,103.551307 64.3556384,104.612725 C65.4079181,105.674143 66.6333176,106.507781 67.9980785,107.091212 C69.4124671,107.69474 70.913127,108 72.4585096,108 C76.3375467,108 79.2525953,106.815371 83.2877288,105.173727 C83.8295937,104.952938 84.3956953,104.723119 84.9923815,104.48398 C85.0160412,104.474659 85.0391238,104.464173 85.0636491,104.454269 L86.4650537,103.841711 C85.4404732,102.534745 84.6885563,101.002622 84.2915349,99.3315579 L83.1264388,99.8395473 Z M115.409526,101.472745 L129.150909,95.4645473 C130.59819,94.8251914 130.733224,93.9714547 130.324661,92.5581724 L130.217038,92.1940746 C130.190782,92.103487 130.159043,92.0146471 130.122399,91.9290113 C129.545911,90.5509737 128.719264,89.3136235 127.667561,88.2524967 C126.616724,87.190496 125.391036,86.3571488 124.026563,85.7737184 C122.611598,85.1701897 121.110361,84.863765 119.564978,84.863765 C118.018153,84.863765 116.517493,85.1701897 115.104259,85.7737184 C113.739209,86.3571488 112.513521,87.190496 111.46153,88.2524967 C110.40925,89.3136235 109.5852,90.5509737 109.006403,91.9290113 C108.408851,93.3568575 108.105026,94.8720872 108.105026,96.4330476 C108.105026,97.1455143 108.170812,97.8469125 108.296035,98.5357856 L113.059426,96.4560586 C113.062311,95.8353445 113.169068,94.8595623 113.578496,93.8808672 C113.905981,93.1008239 114.37427,92.3982607 114.972111,91.7961884 C115.568508,91.1935336 116.263296,90.7190413 117.037718,90.3893142 C117.836666,90.0488099 118.686972,89.8749168 119.564978,89.8749168 C120.443561,89.8749168 121.293579,90.0488099 122.092527,90.3893142 C123.455845,90.9712883 124.29086,91.8660952 124.421277,92.0778545 L113.095204,97.0228862 C113.094915,97.0214298 113.094627,97.0196821 113.094338,97.0182257 L108.403081,99.0664947 C108.403369,99.0679511 108.403658,99.0696987 108.403946,99.0711551 C108.403946,99.0711551 105.462064,100.317244 104.91212,100.540654 C101.161769,102.067826 98.8985162,102.990596 95.9941434,102.990596 C94.0404867,102.990596 92.5268428,102.19395 91.868122,101.482939 L91.8684106,101.482648 C90.5555856,100.389772 89.6752715,98.7874501 89.5235032,96.9789031 L89.5341789,96.974534 C89.469259,96.4933422 89.4522355,95.2490013 90.0267046,93.8808672 C90.353324,93.1008239 90.8210359,92.3982607 91.4188762,91.7961884 C92.0167165,91.1935336 92.7115039,90.7190413 93.4847722,90.3893142 C94.2842971,90.0488099 95.1343152,89.8749168 96.0126095,89.8749168 C96.8894612,89.8749168 97.7397678,90.0488099 98.5404468,90.3893142 C99.5933036,90.8384654 100.672705,91.8122087 100.878429,92.0883405 L90.1132645,96.789281 C90.2633017,98.5774384 91.1404419,100.15908 92.4460535,101.230692 L105.570841,95.5003745 C107.190665,94.7899467 107.242601,93.7046438 106.73536,92.3516561 L106.592825,91.9861019 C106.585034,91.9665862 106.579264,91.948527 106.570319,91.9290113 C105.993253,90.5509737 105.166318,89.3136235 104.116058,88.2524967 C103.06349,87.190496 101.837802,86.3571488 100.473906,85.7737184 C99.0595176,85.1701897 97.5571265,84.863765 96.0126095,84.863765 C94.4663614,84.863765 92.9657014,85.1701897 91.5513128,85.7737184 C90.1859748,86.3571488 88.9605753,87.190496 87.9088727,88.2524967 C86.8574586,89.3136235 86.0308116,90.5509737 85.4531686,91.9290113 C84.856771,93.3568575 84.5526573,94.8720872 84.5526573,96.4330476 C84.5526573,97.3307673 84.6536438,98.212758 84.8521545,99.0726115 L84.8521545,99.0726115 C85.2451364,100.769016 86.007729,102.322112 87.0510642,103.640438 L87.0499101,103.64102 C87.3165145,103.979777 87.6027392,104.304552 87.9088727,104.612725 C88.9605753,105.674143 90.1859748,106.507781 91.5513128,107.091212 C92.9657014,107.69474 94.4603022,108 95.9941434,108 C99.8616392,108 102.75851,106.821779 106.767964,105.189456 C107.32137,104.964298 110.56073,103.590338 110.56073,103.590338 C110.561884,103.591794 110.563038,103.592959 110.564192,103.594416 L115.412123,101.475075 L115.409526,101.472745 Z" id="logo-deen"></path>
        </g>
    </g>
</svg>