<?xml version="1.0" encoding="UTF-8"?>
<svg width="21px" height="18px" viewBox="0 0 21 18" version="1.1" xmlns="http://www.w3.org/2000/svg" xmlns:xlink="http://www.w3.org/1999/xlink">
    <!-- Generator: sketchtool 61 (101010) - https://sketch.com -->
    <title>B9ACDF71-A1B3-45B8-8C4F-C2F5EC6F2BE9</title>
    <desc>Created with sketchtool.</desc>
    <g id="TESTE-DEV" stroke="none" stroke-width="1" fill="none" fill-rule="evenodd" opacity="0.209821429">
        <g id="Menu-aberto" transform="translate(-874.000000, -383.000000)" fill="#FFFFFF" fill-rule="nonzero">
            <g id="Banner" transform="translate(810.000000, 0.000000)">
                <g id="Setas" transform="translate(64.000000, 383.000000)">
                    <path d="M19.8195612,7.3005687 L19.8523417,7.30796864 L5.80010087,7.30796864 L10.2176121,2.73921087 C10.4339291,2.51615556 10.5525876,2.21399137 10.5525876,1.89685111 C10.5525876,1.57971085 10.4339291,1.27966093 10.2176121,1.05607705 L9.5302464,0.346387635 C9.31410011,0.123332322 9.02607578,0 8.7189295,0 C8.4116125,0 8.12341744,0.122451377 7.90727114,0.34550669 L0.334809379,8.15931404 C0.117809427,8.3832503 -0.000849084216,8.68153833 0,8.99885477 C-0.000849084216,9.31793311 0.117809427,9.61639733 0.334809379,9.83998121 L7.90727114,17.6544933 C8.12341744,17.8773724 8.41144177,18 8.7189295,18 C9.02607578,18 9.31410011,17.8771962 9.5302464,17.6544933 L10.2176121,16.9448039 C10.4339291,16.722101 10.5525876,16.4246939 10.5525876,16.1075536 C10.5525876,15.7905895 10.4339291,15.5088633 10.2176121,15.2859842 L5.75024722,10.691679 L19.8352685,10.691679 C20.4681708,10.691679 21,10.128755 21,9.47597467 L21,8.47222576 C21,7.8194454 20.4524635,7.3005687 19.8195612,7.3005687 Z" id="seta-esquerda"></path>
                </g>
            </g>
        </g>
    </g>
</svg>