<?xml version="1.0" encoding="UTF-8"?>
<svg width="21px" height="18px" viewBox="0 0 21 18" version="1.1" xmlns="http://www.w3.org/2000/svg" xmlns:xlink="http://www.w3.org/1999/xlink">
    <!-- Generator: sketchtool 61 (101010) - https://sketch.com -->
    <title>7BE7DCD5-923F-44B2-9E23-588A6D9E3F45</title>
    <desc>Created with sketchtool.</desc>
    <g id="TESTE-DEV" stroke="none" stroke-width="1" >
        <g id="Menu-aberto" transform="translate(-911.000000, -383.000000)" fill="#FFFFFF" fill-rule="nonzero">
            <g id="Banner" transform="translate(810.000000, 0.000000)">
                <g id="Setas" fill="#00fff8" transform="translate(64.000000, 383.000000)">
                    <path d="M56.8195612,7.3005687 L56.8523417,7.30796864 L42.8001009,7.30796864 L47.2176121,2.73921087 C47.4339291,2.51615556 47.5525876,2.21399137 47.5525876,1.89685111 C47.5525876,1.57971085 47.4339291,1.27966093 47.2176121,1.05607705 L46.5302464,0.346387635 C46.3141001,0.123332322 46.0260758,0 45.7189295,0 C45.4116125,0 45.1234174,0.122451377 44.9072711,0.34550669 L37.3348094,8.15931404 C37.1178094,8.3832503 36.9991509,8.68153833 37,8.99885477 C36.9991509,9.31793311 37.1178094,9.61639733 37.3348094,9.83998121 L44.9072711,17.6544933 C45.1234174,17.8773724 45.4114418,18 45.7189295,18 C46.0260758,18 46.3141001,17.8771962 46.5302464,17.6544933 L47.2176121,16.9448039 C47.4339291,16.722101 47.5525876,16.4246939 47.5525876,16.1075536 C47.5525876,15.7905895 47.4339291,15.5088633 47.2176121,15.2859842 L42.7502472,10.691679 L56.8352685,10.691679 C57.4681708,10.691679 58,10.128755 58,9.47597467 L58,8.47222576 C58,7.8194454 57.4524635,7.3005687 56.8195612,7.3005687 Z" id="seta-direita" transform="translate(47.500000, 9.000000) scale(-1, 1) translate(-47.500000, -9.000000) "></path>
                </g>
            </g>
        </g>
    </g>
</svg>